<svg width="900" height="300" viewBox="0 0 900 300" fill="none" xmlns="http://www.w3.org/2000/svg" role="img" aria-labelledby="title desc">
  <title id="title">Public Repository Languages for shaun0927</title>
  <desc id="desc">Static language distribution across public owner repositories generated from GitHub API on 2026-07-21.</desc>
  <rect width="900" height="300" rx="14" fill="#0d1117"/>
  <rect x="1" y="1" width="898" height="298" rx="13" stroke="#30363d" stroke-width="2"/>
  <text x="36" y="52" fill="#f0f6fc" font-family="Segoe UI, Arial, sans-serif" font-size="28" font-weight="700">Public Repo Language Mix</text>
  <text x="36" y="82" fill="#8b949e" font-family="Segoe UI, Arial, sans-serif" font-size="14">Counted by primary language across 160 public repositories</text>
  <g transform="translate(36 112)">
    <rect x="0" y="0" width="357" height="18" rx="9" fill="#3572A5"/>
    <rect x="357" y="0" width="238" height="18" rx="0" fill="#3178c6"/>
    <rect x="595" y="0" width="49" height="18" rx="0" fill="#00ADD8"/>
    <rect x="644" y="0" width="49" height="18" rx="0" fill="#f1e05a"/>
    <rect x="693" y="0" width="49" height="18" rx="0" fill="#dea584"/>
    <rect x="742" y="0" width="16" height="18" rx="0" fill="#f34b7d"/>
    <rect x="758" y="0" width="16" height="18" rx="0" fill="#da5b0b"/>
    <rect x="774" y="0" width="16" height="18" rx="0" fill="#89e051"/>
    <rect x="790" y="0" width="74" height="18" rx="9" fill="#30363d"/>
  </g>
  <g font-family="Segoe UI, Arial, sans-serif" font-size="16">
    <circle cx="46" cy="170" r="6" fill="#3572A5"/><text x="62" y="176" fill="#f0f6fc">Python</text><text x="260" y="176" fill="#8b949e">66 repos</text>
    <circle cx="46" cy="205" r="6" fill="#3178c6"/><text x="62" y="211" fill="#f0f6fc">TypeScript</text><text x="260" y="211" fill="#8b949e">44 repos</text>
    <circle cx="46" cy="240" r="6" fill="#00ADD8"/><text x="62" y="246" fill="#f0f6fc">Go</text><text x="260" y="246" fill="#8b949e">9 repos</text>
    <circle cx="360" cy="170" r="6" fill="#f1e05a"/><text x="376" y="176" fill="#f0f6fc">JavaScript</text><text x="575" y="176" fill="#8b949e">9 repos</text>
    <circle cx="360" cy="205" r="6" fill="#dea584"/><text x="376" y="211" fill="#f0f6fc">Rust</text><text x="575" y="211" fill="#8b949e">9 repos</text>
    <circle cx="360" cy="240" r="6" fill="#f34b7d"/><text x="376" y="246" fill="#f0f6fc">C++</text><text x="575" y="246" fill="#8b949e">3 repos</text>
    <circle cx="650" cy="170" r="6" fill="#da5b0b"/><text x="666" y="176" fill="#f0f6fc">Jupyter Notebook</text><text x="820" y="176" fill="#8b949e">3</text>
    <circle cx="650" cy="205" r="6" fill="#89e051"/><text x="666" y="211" fill="#f0f6fc">Shell</text><text x="820" y="211" fill="#8b949e">3</text>
  </g>
</svg>
